# xmcd
#
# Track frame offsets:
#	150
#	23425
#	48226
#	69552
#	98090
#	123975
#	146764
#	180801
#	209168
#	231762
#	261188
#	298758
#
# Disc length: 4410 seconds
#
# Revision: 0
# Processed by: cddbd v1.5.2PL0 Copyright (c) Steve Scherf et al.
# Submitted via: audiograbber 1.83.01
#
DISCID=aa11380c
DTITLE=Ry Cooder - Live at San Francisco
DYEAR=2013
DGENRE=
TTITLE0=TCrazy 'Bout An Automobile (Every Woman I Know) [Live]		5:10	Ry Cooder 
TTITLE0=& Corridos Famosos	Live In San Francisco	Rock		\nCrazy 'Bout An Automob
TTITLE0=ile (Every Woman I Know) [Live]		5:10	Ry Cooder and Corridos Famosos	Live
TTITLE0=In San Francisco	Rock		\nCrazy Bout an Automobile
TTITLE1=Why Don't You Try Me [Live]		5:31	Ry Cooder and Corridos Famosos	Live In 
TTITLE1=San Francisco	Rock		\nWhy Don`t you try me
TTITLE2=Boomer`s Story
TTITLE3=Lord tell me why
TTITLE4=Do Re Me
TTITLE5=School is out
TTITLE6=The dark end of the street
TTITLE7=El corrido de Jesse James
TTITLE8=Wooly Bully
TTITLE9=Volver Volver
TTITLE10=Vigilnte Man
TTITLE11=Goodnight Irene
EXTD=
EXTT0=
EXTT1=
EXTT2=
EXTT3=
EXTT4=
EXTT5=
EXTT6=
EXTT7=
EXTT8=
EXTT9=
EXTT10=
EXTT11=
PLAYORDER=
